<?xml  version="1.0" encoding="UTF-8"?>
<!DOCTYPE svg PUBLIC "-//W3C//DTD SVG 1.0//EN" "http://www.w3.org/TR/2001/REC-SVG-20010904/DTD/svg10.dtd" >
<svg xmlns="http://www.w3.org/2000/svg" >
<metadata>
<version>1.0</version>
<id><![CDATA[Proxima N W01 At X Cd Lt It]]></id>
<vendor>Monotype Imaging Inc.</vendor>
<credits>
<name>Fonts.com WebFonts</name>
<URL>http://webfonts.fonts.com</URL>
<role>Home of the Web fonts</role>
</credits>
<license>
<URL>http://webfonts.fonts.com/Legal</URL>
</license>
<copyright><![CDATA[Copyright (c) Mark Simonson, 2005. All rights reserved.]]></copyright>
<trademark><![CDATA[Proxima Nova is a trademark of Mark Simonson.]]></trademark>
<licensee>
<name></name>
</licensee>
</metadata>
<defs >
<font horiz-adv-x="338" id="4b2b2329-8a07-42dc-ab21-c9f9ba52953e">
<font-face font-family="" panose-1="2 0 5 6 3 0 0 2 0 4" ascent="741" descent="-259" units-per-em="1000" alphabetic="0">
</font-face>
<missing-glyph horiz-adv-x="0" />

<glyph unicode="&#xA;" />
<glyph unicode="&#xD;" horiz-adv-x="0" />
<glyph unicode=" " horiz-adv-x="176" />
<glyph unicode="!" horiz-adv-x="217" d="M73 172L170 667H234L111 172H73ZM58 -10Q41 -10 30 1T19 29Q19 49 32 62T65 75Q82 75 93 64T104 36Q104 16 91 3T58 -10Z"  />
<glyph unicode="&quot;" horiz-adv-x="313" d="M118 430Q125 486 131 531Q133 550 135 568T140 601T143 625T144 635Q146 654 156 665T184 677Q197 677 206 668T215 645Q215 640 213 634T210 626Q210 625 207 617T200 594T190 563T178 527Q164 484 146 430H118ZM247 430Q254 486 260 531Q262 550 264 568T269 601T272 625T273 635Q275 654 285 665T313 677Q326 677 335 668T344 645Q344 640 342 634T339 626Q339 625 336 617T329 594T319 563T307 527Q293 484 275 430H247Z"  />
<glyph unicode="#" horiz-adv-x="409" d="M109 0L195 187H121L37 0H-8L77 187H4L21 226H94L193 441H119L135 480H209L294 667H339L254 480H328L412 667H456L372 480H443L428 441H354L256 226H331L314 187H238L154 0H109ZM310 441H237L139 226H211L310 441Z"  />
<glyph unicode="$" horiz-adv-x="324" d="M95 -11Q60 -6 31 10T-14 53L24 93Q36 70 58 55T105 37L169 325Q156 343 143 362T120 401T103 444T96 494Q96 532 108 564T142 621T190 660T248 677L268 768H313L292 674Q315 669 335 658T369 627L335 587Q314 617 281 626L221 356Q246 321 266 282T286 192Q286 152 275 118T245 57T198 13T140 -10L120 -100H75L95 -11ZM152 500Q152 474 162 451T187 405L236 627Q198 618 175 582T152 500ZM231 187Q231 212 223 234T203 276L152 45Q184 59 207 95T231 187Z"  />
<glyph unicode="%" horiz-adv-x="562" d="M74 0L492 667H529L110 0H74ZM370 -12Q344 -12 325 -2T294 24T277 63T271 108Q271 151 283 189T316 255T362 299T415 315Q441 315 460 305T491 279T508 241T514 196Q514 152 502 115T469 49T423 4T370 -12ZM371 25Q389 25 407 38T439 73T462 126T471 193Q471 237 456 257T414 278Q396 278 378 266T346 231T323 178T314 111Q314 66 329 46T371 25ZM187 350Q160 350 141 360T110 386T93 424T87 469Q87 512 99 550T132 616T178 661T231 677Q258 677 277 667T308 641T325 602T331 557Q331 513 319 476T286 410T240 366T187 350ZM188 387Q206 387 223 399T255 434T279 487T288 554Q288 599 273 619T230 640Q212 640 195 627T163 592T139 539T130 472Q130 428 145 408T188 387Z"  />
<glyph unicode="&amp;" horiz-adv-x="379" d="M254 0Q249 14 244 29T234 59Q206 26 176 7T114 -12Q71 -12 44 18T16 105Q16 154 28 192T59 261T104 318T155 367Q152 392 151 415T149 464Q149 506 159 544T188 612T229 659T276 677Q307 677 328 656T349 582Q349 541 337 510T304 451T258 401T205 353Q209 329 214 305T226 255Q233 226 239 203T250 159Q272 197 289 237T320 309L361 289Q339 237 316 190T268 105Q276 82 285 57T309 0H254ZM121 32Q146 32 170 53T218 107Q207 139 199 168T185 221Q171 275 164 315Q125 276 97 228T69 108Q69 73 83 53T121 32ZM197 452Q197 440 197 428T199 404Q220 423 239 442T272 483T294 530T303 585Q303 617 294 626T271 635Q256 635 243 619T220 576T203 517T197 452Z"  />
<glyph unicode="&apos;" horiz-adv-x="186" d="M118 430Q125 486 131 531Q133 550 135 568T140 601T143 625T144 635Q146 654 156 665T184 677Q197 677 206 668T215 645Q215 640 213 634T210 626Q210 625 207 617T200 594T190 563T178 527Q164 484 146 430H118Z"  />
<glyph unicode="(" horiz-adv-x="188" d="M40 -199Q29 -154 24 -104T18 -2Q18 97 33 189T77 367T146 532T235 685L265 669Q224 597 188 513T125 337T83 150T67 -38Q67 -48 67 -66T69 -106T71 -149T75 -188L40 -199Z"  />
<glyph unicode=")" horiz-adv-x="188" d="M147 685Q158 640 163 590T169 488Q169 389 154 297T110 119T41 -46T-48 -199L-78 -183Q-37 -111 -1 -27T62 149T104 336T120 524Q120 534 120 552T118 592T116 635T112 674L147 685Z"  />
<glyph unicode="*" horiz-adv-x="296" d="M163 401L195 519L83 467L72 500L188 542L96 605L121 634L205 561L225 677H262L229 558L342 610L353 577L238 536L328 473L304 444L220 517L200 401H163Z"  />
<glyph unicode="+" horiz-adv-x="376" d="M225 317L190 159H147L183 317H45L54 357H192L225 509H268L234 357H372L363 317H225Z"  />
<glyph unicode="&#x2c;" horiz-adv-x="218" d="M106 28Q106 7 98 -14T75 -55T43 -90T5 -116L-18 -90Q10 -76 31 -53T59 -6H52Q39 -6 29 4T19 29Q19 48 33 61T65 75Q82 75 94 63T106 28Z"  />
<glyph unicode="-" horiz-adv-x="233" d="M24 219L34 265H206L197 219H24Z"  />
<glyph unicode="." horiz-adv-x="217" d="M58 -10Q41 -10 30 1T19 29Q19 49 32 62T66 75Q82 75 93 64T104 36Q104 16 91 3T58 -10Z"  />
<glyph unicode="/" horiz-adv-x="189" d="M-59 -20L244 687H288L-16 -20H-59Z"  />
<glyph unicode="0" horiz-adv-x="395" d="M155 -12Q106 -12 75 28T43 159Q43 209 50 267T72 382T106 493T153 587T210 652T278 677Q327 677 358 637T390 506Q390 456 383 398T361 283T327 172T280 78T223 13T155 -12ZM160 37Q187 37 210 62T253 128T288 221T315 326T331 429T337 516Q337 570 323 599T273 628Q247 628 224 603T180 537T145 444T119 339T102 236T96 150Q96 95 110 66T160 37Z"  />
<glyph unicode="1" horiz-adv-x="267" d="M92 0L223 594L97 483L71 519L245 667H293L146 0H92Z"  />
<glyph unicode="2" horiz-adv-x="370" d="M2 0L14 57Q76 136 123 197T206 305T264 387T301 450T322 501T328 546Q328 584 310 606T259 628Q230 628 205 610T153 551L116 583Q147 627 183 652T262 677Q317 677 352 646T387 554Q387 514 372 473T322 376T227 241T77 49H277L267 0H2Z"  />
<glyph unicode="3" horiz-adv-x="369" d="M140 -12Q88 -12 50 20T0 121L50 144Q58 90 81 64T140 37Q168 37 189 55T226 101T249 163T257 231Q257 278 234 298T180 319Q172 319 165 319T152 318L164 369Q167 369 172 369T184 368T197 368T207 368Q235 368 256 383T292 424T313 481T321 545Q321 589 302 608T250 628Q218 628 192 606T149 551L111 580Q122 599 137 616T171 647T212 669T258 677Q312 677 345 645T379 551Q379 518 370 484T344 420T302 369T246 340Q264 333 277 320T297 291T308 257T312 219Q312 177 300 136T265 62T210 9T140 -12Z"  />
<glyph unicode="4" d="M164 0L204 184H-1L11 237L297 667H364L268 232H322L312 184H258L217 0H164ZM294 589L60 232H214L294 589Z"  />
<glyph unicode="5" horiz-adv-x="371" d="M142 -12Q80 -12 50 25T10 120L60 140Q69 37 143 37Q168 37 191 59T233 116T261 194T272 281Q272 322 257 344T209 367Q183 367 160 352T114 310L77 331L152 667H395L385 618H195L139 365Q159 390 180 402T231 414Q276 414 302 379T329 284Q329 230 315 177T275 82T216 14T142 -12Z"  />
<glyph unicode="6" horiz-adv-x="371" d="M151 -12Q119 -12 98 1T63 36T45 88T40 149Q40 177 45 227T63 336T94 455T141 565T205 646T288 677Q330 677 361 648T400 568L356 541Q354 580 336 604T285 628Q251 628 225 600T178 529T143 434T118 335Q116 326 116 324T114 314Q124 333 137 350T165 381T197 403T234 411Q276 411 305 379T334 281Q334 237 323 186T288 91T231 18T151 -12ZM156 37Q187 37 210 63T248 128T270 207T278 279Q278 314 264 339T216 364Q198 364 182 354T151 328T124 290T102 247Q97 225 94 197T91 144Q91 94 106 66T156 37Z"  />
<glyph unicode="7" horiz-adv-x="304" d="M23 0L304 618H105L115 667H375L366 630L82 0H23Z"  />
<glyph unicode="8" horiz-adv-x="370" d="M147 -12Q87 -12 52 17T16 116Q16 150 25 183T54 247T101 304T168 348Q143 369 124 406T105 486Q105 520 116 554T149 615T199 660T264 677Q287 677 308 670T347 648T374 609T385 550Q385 507 372 473T339 413T294 369T245 341Q275 315 293 275T312 193Q312 148 299 111T264 46T211 4T147 -12ZM211 365Q229 372 249 386T287 422T316 475T328 547Q328 585 311 606T259 627Q239 627 221 615T190 583T168 535T160 476Q160 440 176 410T211 365ZM146 37Q166 37 186 49T221 84T246 136T256 200Q256 226 250 247T236 283T219 309T202 324Q179 315 157 297T116 254T86 196T74 125Q74 78 95 58T146 37Z"  />
<glyph unicode="9" horiz-adv-x="371" d="M259 678Q291 678 312 665T347 630T365 578T371 517Q371 489 366 439T348 330T317 211T270 101T205 20T122 -11Q80 -11 49 18T11 98L54 125Q56 86 74 62T125 38Q159 38 185 66T231 137T266 232T292 331Q294 340 294 342T296 352Q286 333 273 316T245 285T213 263T176 255Q134 255 106 287T77 385Q77 428 88 479T123 575T180 648T259 678ZM254 629Q223 629 200 603T162 538T140 459T132 387Q132 352 146 327T194 302Q212 302 228 312T259 338T286 376T309 419Q313 441 316 469T320 522Q320 572 305 600T254 629Z"  />
<glyph unicode=":" horiz-adv-x="217" d="M58 -10Q41 -10 30 1T19 29Q19 49 32 62T66 75Q82 75 93 64T104 36Q104 16 91 3T58 -10ZM150 406Q133 406 122 417T111 445Q111 464 124 477T157 490Q174 490 185 479T196 451Q196 432 183 419T150 406Z"  />
<glyph unicode=";" horiz-adv-x="217" d="M106 28Q106 7 98 -14T75 -55T43 -90T5 -116L-18 -90Q10 -76 31 -53T59 -6H52Q39 -6 29 4T19 29Q19 48 33 61T65 75Q82 75 94 63T106 28ZM150 406Q133 406 122 417T111 445Q111 464 124 477T157 490Q174 490 185 479T196 451Q196 432 183 419T150 406Z"  />
<glyph unicode="&lt;" horiz-adv-x="376" d="M44 317L53 352L405 506L393 456L99 332L338 209L329 164L44 317Z"  />
<glyph unicode="=" horiz-adv-x="376" d="M66 412L75 452H393L384 412H66ZM22 216L31 256H349L340 216H22Z"  />
<glyph unicode="&gt;" horiz-adv-x="376" d="M10 164L22 213L317 336L77 461L87 506L371 352L363 317L10 164Z"  />
<glyph unicode="?" horiz-adv-x="307" d="M126 176Q119 190 117 207T114 239Q114 274 127 301T159 352T202 397T244 441T277 490T290 549Q290 580 272 605T217 630Q194 630 179 624T146 604L128 644Q152 663 176 670T226 678Q255 678 277 668T315 642T338 604T346 561Q346 522 333 491T299 435T255 386T211 342T177 297T163 247Q163 236 165 222T173 197L126 176ZM106 -10Q90 -10 79 1T68 29Q68 49 81 62T114 75Q131 75 142 64T153 36Q153 16 140 3T106 -10Z"  />
<glyph unicode="@" horiz-adv-x="584" d="M279 -70Q229 -70 188 -50T118 7T72 97T55 216Q55 297 81 373T151 508T253 603T376 639Q463 639 516 575T569 393Q569 326 557 270T524 172T479 108T429 85Q397 85 379 105T359 156V162Q350 148 340 134T316 109T288 92T254 85Q238 85 222 91T193 111T172 148T164 206Q164 257 177 309T213 403T270 473T344 500Q373 500 391 478T416 425L427 482H474L413 194Q412 190 411 182T410 166Q410 143 416 134T439 124Q451 124 468 141T500 192T527 276T538 393Q538 446 526 486T492 553T441 593T376 607Q318 607 266 573T175 484T113 359T90 216Q90 156 104 109T144 29T205 -21T284 -39Q324 -39 355 -24T416 17L431 -7Q397 -37 359 -53T279 -70ZM266 124Q284 124 298 132T325 153T348 181T368 212L406 384Q401 412 388 436T348 460Q316 460 291 435T249 373T223 291T214 210Q214 169 226 147T266 124Z"  />
<glyph unicode="A" d="M221 0L228 166H77L12 0H-45L231 667H293L275 0H221ZM249 598L96 215H232L249 598Z"  />
<glyph unicode="B" horiz-adv-x="381" d="M13 0L160 667H257Q317 667 349 631T382 537Q382 504 374 472T351 412T313 365T261 338Q278 333 289 321T308 292T319 258T322 224Q322 183 311 143T278 72T224 20T150 0H13ZM216 367Q244 367 265 384T299 426T318 479T325 531Q325 576 304 597T244 618H204L148 367H216ZM149 49Q175 49 196 64T233 104T257 161T266 226Q266 275 245 296T182 318H137L77 49H149Z"  />
<glyph unicode="C" horiz-adv-x="374" d="M163 -12Q108 -12 76 31T43 168Q43 204 49 255T68 363T100 476T147 577T210 650T289 678Q317 678 337 668T372 638T394 594T405 539L354 529Q349 579 333 604T284 629Q253 629 228 603T183 535T147 441T121 338T105 240T100 164Q100 95 116 66T168 37Q196 37 219 59T265 124L309 101Q278 46 243 17T163 -12Z"  />
<glyph unicode="D" horiz-adv-x="407" d="M13 0L160 667H268Q291 667 314 657T355 624T384 564T396 475Q396 451 391 407T374 309T342 202T292 102T220 29T124 0H13ZM133 49Q172 49 202 75T256 141T295 231T321 328T335 414T340 474Q340 513 333 540T315 585T289 610T258 618H204L77 49H135H133Z"  />
<glyph unicode="E" horiz-adv-x="341" d="M13 0L160 667H389L379 618H204L148 367H316L305 318H137L77 49H253L242 0H13Z"  />
<glyph unicode="F" horiz-adv-x="340" d="M13 0L160 667H389L379 618H204L148 367H316L305 318H137L67 0H13Z"  />
<glyph unicode="G" horiz-adv-x="393" d="M153 -12Q103 -12 73 31T43 168Q43 200 49 250T67 357T100 471T149 574T215 649T301 678Q325 678 343 667T375 636T394 593T403 543L355 532Q352 573 337 601T292 629Q260 629 233 603T185 535T148 441T122 338T106 240T100 164Q100 103 114 70T162 37Q188 37 210 57T250 112T282 190T308 282H197L207 331H374Q339 165 287 77T153 -12Z"  />
<glyph unicode="H" horiz-adv-x="416" d="M240 0L310 319H137L67 0H13L160 667H214L148 367H322L387 667H441L294 0H240Z"  />
<glyph unicode="I" horiz-adv-x="189" d="M13 0L160 667H214L67 0H13Z"  />
<glyph unicode="J" horiz-adv-x="310" d="M72 -12Q38 -12 10 1T-36 42L-4 80Q8 57 28 47T69 37Q108 37 130 59T163 133L282 667H336L217 132Q200 56 166 22T72 -12Z"  />
<glyph unicode="K" horiz-adv-x="395" d="M268 0L181 306L115 217L67 0H13L160 667H214L136 314L395 667H461L220 349L326 0H268Z"  />
<glyph unicode="L" horiz-adv-x="320" d="M13 0L160 667H214L77 49H253L242 0H13Z"  />
<glyph unicode="M" horiz-adv-x="533" d="M358 0L484 566L224 0H201L192 566L67 0H13L160 667H236L245 154L482 667H559L412 0H358Z"  />
<glyph unicode="N" horiz-adv-x="416" d="M242 0L185 534L67 0H13L160 667H214L271 142L387 667H441L294 0H242Z"  />
<glyph unicode="O" horiz-adv-x="415" d="M163 -12Q130 -12 107 2T70 41T50 98T43 168Q43 202 49 253T68 361T101 474T148 576T210 649T289 678Q322 678 345 664T382 624T403 566T410 497Q410 463 404 412T385 304T352 191T305 89T242 16T163 -12ZM168 37Q197 37 222 62T267 127T304 218T331 320T347 418T353 500Q353 559 338 594T284 629Q254 629 229 604T184 539T148 447T122 345T106 246T100 164Q100 105 115 71T168 37Z"  />
<glyph unicode="P" horiz-adv-x="364" d="M13 0L160 667H268Q321 667 354 628T387 523Q387 480 375 437T339 358T277 301T191 279H129L67 0H13ZM139 328H197Q231 328 256 345T297 390T322 452T330 521Q330 572 309 595T256 618H204L139 328Z"  />
<glyph unicode="Q" horiz-adv-x="415" d="M163 -12Q130 -12 107 2T70 41T50 98T43 168Q43 202 49 253T68 361T101 474T148 576T210 649T289 678Q322 678 345 664T382 624T403 566T410 497Q410 469 406 429T394 345T372 253T340 162T299 82T248 21L256 -27L212 -35L207 -3Q186 -12 163 -12ZM168 37Q183 37 199 45L174 204L219 212L239 81Q266 116 287 171T323 286T345 403T353 500Q353 559 338 594T284 629Q254 629 229 604T184 539T148 447T122 345T106 246T100 164Q100 105 115 71T168 37Z"  />
<glyph unicode="R" horiz-adv-x="388" d="M229 0L198 279H129L67 0H13L160 667H266Q293 667 316 657T355 627T380 582T389 526Q389 481 378 442T348 371T303 317T248 287L285 0H229ZM139 328H198Q232 328 256 345T297 391T322 453T330 523Q330 572 311 595T259 618H204L139 328Z"  />
<glyph unicode="S" horiz-adv-x="337" d="M114 -12Q74 -12 39 6T-14 53L24 93Q37 68 62 53T113 37Q135 37 156 47T194 76T221 123T231 187Q231 230 210 264T164 333T117 406T96 494Q96 533 109 567T145 625T197 664T258 678Q290 678 320 666T369 627L335 587Q307 629 258 629Q234 629 215 619T181 591T160 550T152 500Q152 462 173 429T219 360T265 284T286 192Q286 148 273 111T237 47T182 4T114 -12Z"  />
<glyph unicode="T" horiz-adv-x="305" d="M71 0L208 618H101L111 667H380L370 618H262L125 0H71Z"  />
<glyph unicode="U" horiz-adv-x="416" d="M170 -12Q115 -12 80 21T45 117Q45 142 50 164L160 667H214L103 162Q101 156 100 144T98 123Q98 79 120 58T174 37Q213 37 237 65T277 162L388 667H442L331 163Q311 71 272 30T170 -12Z"  />
<glyph unicode="V" d="M84 0L102 667H156L129 74L365 667H422L146 0H84Z"  />
<glyph unicode="W" horiz-adv-x="519" d="M282 0L328 551L129 0H70L114 667H170L122 99L328 667H377L331 99L534 667H591L341 0H282Z"  />
<glyph unicode="X" d="M222 0L179 282L15 0H-48L160 342L106 667H164L200 396L354 667H418L219 336L278 0H222Z"  />
<glyph unicode="Y" horiz-adv-x="347" d="M93 0L156 286L94 667H149L192 344L380 667H439L210 286L146 0H93Z"  />
<glyph unicode="Z" horiz-adv-x="324" d="M-20 0L-10 49L304 618H117L127 667H376L366 620L51 49H246L236 0H-20Z"  />
<glyph unicode="[" horiz-adv-x="172" d="M-62 -190L130 678H251L241 637H163L-11 -149H67L58 -190H-62Z"  />
<glyph unicode="\" horiz-adv-x="189" d="M89 687H131V-20H89V687Z"  />
<glyph unicode="]" horiz-adv-x="172" d="M-79 -190L-70 -149H8L182 637H104L113 678H234L41 -190H-79Z"  />
<glyph unicode="^" horiz-adv-x="327" d="M286 333L249 622L84 333H38L237 667H276L327 333H286Z"  />
<glyph unicode="_" horiz-adv-x="279" d="M-74 -81L-65 -40H219L210 -81H-74Z"  />
<glyph unicode="`" horiz-adv-x="133" d="M167 556L101 700H155L202 556H167Z"  />
<glyph unicode="a" horiz-adv-x="359" d="M203 0L213 48Q196 19 171 4T118 -12Q77 -12 47 17T17 105Q17 143 27 180T57 245T104 291T166 309Q178 309 191 305T217 293T240 271T255 240L278 339Q281 354 282 363T284 385Q284 419 265 436T214 453Q190 453 165 442T116 407L100 446Q126 469 158 482T222 495Q273 495 304 471T335 398Q335 384 334 373T328 343L252 0H203ZM136 27Q158 27 180 42T222 91L247 198Q241 233 221 251T171 270Q146 270 127 254T96 214T77 162T70 108Q70 66 88 47T136 27Z"  />
<glyph unicode="b" horiz-adv-x="368" d="M155 -12Q129 -12 106 8T71 73L56 0H7L154 667H203L148 419Q193 495 249 495Q294 495 317 459T340 357Q340 328 335 289T320 209T295 129T259 58T212 7T155 -12ZM151 32Q173 32 192 49T226 95T253 158T273 230T285 299T289 355Q289 406 274 428T230 451Q217 451 204 444T178 424T154 395T135 361L82 124Q83 105 89 89T105 60T126 40T151 32Z"  />
<glyph unicode="c" horiz-adv-x="306" d="M148 -12Q94 -12 62 26T29 147Q29 195 41 255T79 369T142 458T232 495Q262 495 285 482T322 446L291 411Q280 432 264 441T231 451Q205 451 184 436T147 394T118 336T97 269T85 202T81 144Q81 84 101 58T154 32Q174 32 189 41T219 66L237 28Q214 6 194 -3T148 -12Z"  />
<glyph unicode="d" horiz-adv-x="368" d="M211 495Q237 495 261 475T296 410L352 667H401L253 0H204L219 64Q174 -12 118 -12Q73 -12 50 24T26 126Q26 155 31 194T46 274T71 354T107 425T154 476T211 495ZM216 451Q194 451 175 434T141 388T114 325T94 253T82 184T78 128Q78 77 93 55T137 32Q150 32 163 39T188 59T212 88T231 122L284 359Q282 378 277 394T262 423T241 443T216 451Z"  />
<glyph unicode="e" horiz-adv-x="359" d="M157 -12Q97 -12 63 27T28 147Q28 169 32 203T45 276T70 354T107 424T158 475T224 495Q273 495 304 463T336 352Q336 320 331 287T318 226H86Q77 182 77 146Q77 94 97 62T161 30Q184 30 207 46T248 89L275 58Q220 -12 157 -12ZM277 265Q282 287 285 307T288 350Q288 371 284 389T272 422T252 444T221 453Q194 453 173 434T136 387T110 326T93 265H271H277Z"  />
<glyph unicode="f" horiz-adv-x="213" d="M20 0L117 439H69L78 483H127L147 577Q159 632 187 654T251 677Q273 677 295 667L274 626Q269 630 263 631T252 633Q229 633 216 618T196 577L176 483H244L234 439H167L69 0H20Z"  />
<glyph unicode="g" horiz-adv-x="368" d="M90 -196Q57 -196 24 -183T-31 -142L1 -103Q14 -123 38 -137T91 -152Q130 -152 156 -123T197 -31L221 68Q177 -8 119 -8Q79 -8 53 24T27 128Q27 157 31 195T46 274T71 354T106 425T153 476T212 495Q238 495 263 473T297 410L312 483H360L246 -31Q226 -121 187 -158T90 -196ZM137 36Q150 36 164 43T190 63T213 92T232 126L284 359Q283 376 277 392T262 422T241 443T215 451Q193 451 175 435T141 391T114 329T94 260T82 191T78 132Q78 77 94 57T137 36Z"  />
<glyph unicode="h" horiz-adv-x="360" d="M196 0L281 382Q283 387 284 396T285 409Q285 432 275 441T244 451Q229 451 214 444T184 423T158 394T135 362L56 0H7L154 667H203L148 417Q171 450 199 472T263 495Q300 495 318 476T337 425Q337 419 336 410T332 392L246 0H196Z"  />
<glyph unicode="i" horiz-adv-x="170" d="M159 560Q144 560 134 570T123 594Q123 614 137 625T167 636Q182 636 192 627T202 603Q202 583 188 572T159 560ZM7 0L114 483H163L56 0H7Z"  />
<glyph unicode="j" horiz-adv-x="170" d="M-58 -196Q-80 -196 -95 -188T-118 -160L-85 -131Q-80 -152 -59 -152Q-45 -152 -34 -139T-13 -83L114 483H163L37 -83Q29 -115 20 -137T0 -172T-26 -190T-58 -196ZM159 560Q144 560 134 570T123 594Q123 614 137 625T167 636Q182 636 192 627T202 603Q202 583 188 572T159 560Z"  />
<glyph unicode="k" horiz-adv-x="343" d="M218 0L168 233L84 128L56 0H7L154 667H203L100 202L324 483H378L205 266L269 0H218Z"  />
<glyph unicode="l" horiz-adv-x="197" d="M90 -12Q57 -12 39 3T20 51Q20 59 21 67T25 85L154 667H203L75 90Q73 83 72 76T71 63Q71 32 101 32Q120 32 134 49L148 12Q137 1 123 -5T90 -12Z"  />
<glyph unicode="m" horiz-adv-x="550" d="M386 0L471 382Q471 386 472 394T474 409Q474 451 433 451Q418 451 403 443T374 423T348 394T325 362L246 0H196L281 382Q283 390 284 397T285 411Q285 451 244 451Q229 451 214 443T184 423T158 394T135 362L56 0H7L114 483H163L148 417Q171 450 200 472T263 495Q298 495 317 476T337 429Q337 425 337 423T336 415Q361 450 390 472T453 495Q488 495 507 477T527 426Q527 417 526 409T522 392L435 0H386Z"  />
<glyph unicode="n" horiz-adv-x="360" d="M196 0L281 382Q283 388 284 396T285 409Q285 432 275 441T244 451Q229 451 214 444T184 423T158 394T135 362L56 0H7L114 483H163L148 417Q171 450 199 472T263 495Q298 495 317 477T337 425Q337 420 336 409T332 392L246 0H196Z"  />
<glyph unicode="o" horiz-adv-x="367" d="M140 -12Q89 -12 59 23T28 137Q28 171 33 210T50 290T77 367T116 432T165 478T226 495Q277 495 307 460T338 346Q338 312 333 273T316 193T289 116T250 51T201 5T140 -12ZM143 32Q166 32 185 48T221 91T249 151T269 220T282 288T287 346Q287 406 270 428T223 451Q200 451 181 435T145 392T117 331T97 262T84 194T79 136Q79 76 96 54T143 32Z"  />
<glyph unicode="p" horiz-adv-x="368" d="M155 -12Q129 -12 106 8T71 73L15 -184H-34L114 483H163L148 419Q193 495 249 495Q294 495 317 459T340 357Q340 328 335 289T320 209T295 129T259 58T212 7T155 -12ZM151 32Q173 32 192 49T226 95T253 158T273 230T285 299T289 355Q289 406 274 428T230 451Q217 451 204 444T178 424T154 395T135 361L82 124Q83 105 89 89T105 60T126 40T151 32Z"  />
<glyph unicode="q" horiz-adv-x="368" d="M211 495Q237 495 261 475T296 410L311 483H360L212 -184H163L219 64Q174 -12 118 -12Q73 -12 50 24T26 126Q26 155 31 194T46 274T71 354T107 425T154 476T211 495ZM216 451Q194 451 175 434T141 388T114 325T94 253T82 184T78 128Q78 77 93 55T137 32Q150 32 163 39T188 59T212 88T231 122L284 359Q282 378 277 394T262 423T241 443T216 451Z"  />
<glyph unicode="r" horiz-adv-x="239" d="M7 0L114 483H163L147 413Q170 451 200 472T278 493L266 440Q262 442 256 442T246 442Q211 442 183 417T134 353L56 0H7Z"  />
<glyph unicode="s" horiz-adv-x="294" d="M101 -12Q63 -12 33 4T-14 53L20 84Q31 59 52 44T104 29Q122 29 137 37T165 58T184 89T191 126Q191 149 182 168T158 204T128 237T98 271T75 310T65 360Q65 387 74 411T100 454T141 484T196 495Q227 495 254 480T298 438L266 407Q256 430 236 442T193 454Q158 454 136 430T113 369Q113 337 133 312T176 262T220 208T240 136Q240 106 230 79T201 32T157 0T101 -12Z"  />
<glyph unicode="t" horiz-adv-x="222" d="M104 -12Q34 -12 34 52Q34 68 38 85L117 439H67L77 483H127L156 615H205L176 483H244L234 439H167L89 90Q87 82 86 75T85 61Q85 32 115 32Q134 32 148 49L162 12Q151 2 138 -5T104 -12Z"  />
<glyph unicode="u" horiz-adv-x="360" d="M163 483L78 101Q76 94 76 87T75 74Q75 51 85 42T115 32Q145 32 173 57T222 116L303 483H353L246 0H196L211 66Q188 33 160 11T96 -12Q61 -12 42 6T22 58Q22 63 23 74T27 91L114 483H163Z"  />
<glyph unicode="v" horiz-adv-x="303" d="M69 0L66 483H117L108 60L288 483H343L124 0H69Z"  />
<glyph unicode="w" horiz-adv-x="513" d="M289 0L294 414L116 0H65L70 483H120L106 72L281 483H333L326 72L495 483H549L340 0H289Z"  />
<glyph unicode="x" horiz-adv-x="306" d="M184 0L146 204L17 0H-38L123 245L75 483H126L160 286L282 483H337L182 245L236 0H184Z"  />
<glyph unicode="y" horiz-adv-x="360" d="M82 -196Q45 -196 12 -181T-38 -142L-6 -103Q8 -127 33 -139T83 -152Q124 -152 149 -123T189 -31L212 72Q189 38 161 15T97 -8Q60 -8 42 11T23 63Q23 80 27 95L114 483H163L78 105Q75 90 75 78Q75 58 84 47T116 36Q146 36 174 62T223 121L303 483H353L238 -31Q220 -111 184 -153T82 -196Z"  />
<glyph unicode="z" horiz-adv-x="289" d="M-16 0L-8 40L234 439H81L91 483H300L291 443L50 44H206L197 0H-16Z"  />
<glyph unicode="{" horiz-adv-x="195" d="M54 -190Q25 -190 3 -170T-19 -115Q-19 -107 -18 -99T-15 -87L38 154Q39 158 40 163T41 174Q41 196 32 210T1 225L10 263Q39 263 55 283T78 334L132 579Q144 632 173 655T242 678H274L264 637H233Q213 637 197 623T174 579L119 326Q111 294 97 272T54 239Q83 224 83 185Q83 177 82 169T79 151L26 -90Q24 -100 24 -106Q24 -127 34 -138T59 -149H90L81 -190H54Z"  />
<glyph unicode="|" horiz-adv-x="176" d="M87 -20V687H128V-20H87Z"  />
<glyph unicode="}" horiz-adv-x="195" d="M139 678Q168 678 190 658T213 601Q213 596 212 588T209 575L156 334Q155 330 154 324T153 313Q153 292 162 278T192 263L183 225Q154 225 139 205T116 154L61 -91Q50 -144 21 -167T-49 -190H-80L-71 -149H-40Q-20 -149 -4 -135T19 -91L75 162Q82 194 96 216T139 249Q126 256 118 270T110 303Q110 311 111 319T114 337L167 578Q169 588 169 594Q169 615 159 626T135 637H104L113 678H139Z"  />
<glyph unicode="~" horiz-adv-x="385" d="M450 663Q442 626 430 585T399 510T357 452T302 429Q276 429 263 443T246 480T241 527T240 575T234 611T212 626Q181 626 157 577T109 427L69 433Q78 470 90 510T120 585T161 642T216 665Q242 665 255 651T272 614T277 566T278 518T284 482T306 467Q337 467 361 516T410 667L450 663Z"  />
<glyph unicode="&#xA0;" horiz-adv-x="176" />
<glyph unicode="&#xA1;" horiz-adv-x="217" d="M143 311L46 -184H-18L104 311H143ZM158 493Q175 493 186 482T197 454Q197 434 184 421T150 408Q134 408 123 419T112 447Q112 467 125 480T158 493Z"  />
<glyph unicode="&#xA2;" horiz-adv-x="306" d="M114 -8Q74 2 52 40T29 147Q29 194 41 253T77 365T139 455T226 494L242 565H284L267 489Q284 484 298 473T322 446L291 411Q278 435 257 445L165 33Q195 37 219 66L237 28Q216 8 197 -1T155 -12L136 -100H94L114 -8ZM81 144Q81 98 92 73T124 38L216 449Q181 442 156 407T114 326T89 230T81 144Z"  />
<glyph unicode="&#xA3;" horiz-adv-x="361" d="M44 309H123Q115 338 106 367T96 436Q96 484 110 528T149 605T205 657T272 677Q322 677 355 648T392 566L344 549Q340 584 324 607T272 630Q251 630 230 616T192 575T165 512T154 433Q154 396 163 367T180 309H256L248 269H185V267Q185 234 175 202T150 143T115 95T77 60Q88 66 95 68T112 71Q128 71 141 66T167 54T191 43T216 37Q237 37 255 48T284 73L298 31Q282 13 257 1T206 -12Q182 -12 167 -6T140 7T116 21T88 28Q71 28 54 21T11 -7L-3 35Q22 50 46 73T90 126T120 186T132 250Q132 255 132 259T131 269H35L44 309Z"  />
<glyph unicode="&#xA4;" horiz-adv-x="506" d="M253 222Q310 222 341 262T372 365Q372 395 364 421T341 467T304 498T253 509Q224 509 202 498T165 468T141 422T133 365Q133 334 141 308T164 263T202 233T253 222ZM19 168L88 239Q50 294 50 365Q50 436 88 489L19 560L64 603L131 534Q155 552 185 563T253 574Q289 574 320 563T375 534L442 603L487 560L418 489Q455 435 455 365Q455 330 445 298T417 240L487 168L442 125L374 194Q325 157 253 157Q181 157 132 194L64 125L19 168Z"  />
<glyph unicode="&#xA5;" horiz-adv-x="347" d="M96 0L124 126H-6L3 166H133L159 286H30L38 326H152L97 667H152L195 344L383 667H442L237 326H343L335 286H213L186 166H308L299 126H177L149 0H96Z"  />
<glyph unicode="&#xA6;" horiz-adv-x="176" d="M87 -20V296H128V-20H87ZM87 371V687H128V371H87Z"  />
<glyph unicode="&#xA7;" horiz-adv-x="294" d="M278 319Q278 269 254 232T178 178Q197 159 210 131T223 74Q223 43 214 15T186 -34T143 -68T88 -81Q47 -81 17 -67T-34 -19L0 12Q12 -12 33 -26T87 -41Q105 -41 120 -33T148 -10T167 24T174 66Q174 100 155 123T113 170T70 221T51 292Q51 341 80 378T164 423Q136 448 121 477T106 539Q106 569 116 594T144 638T184 667T231 677Q308 677 342 621L309 593Q295 619 276 628T232 638Q215 638 201 631T177 611T160 581T154 546Q154 512 173 488T216 440T258 388T278 319ZM231 310Q231 342 218 363T193 398Q164 395 146 385T117 362T102 332T98 300Q98 276 112 250T151 202Q231 230 231 310Z"  />
<glyph unicode="&#xA8;" horiz-adv-x="258" d="M309 604Q309 588 298 577T269 565Q255 565 246 574T237 597Q237 613 249 624T277 636Q291 636 300 627T309 604ZM178 604Q178 588 166 577T138 565Q124 565 115 574T106 597Q106 613 117 624T146 636Q160 636 169 627T178 604Z"  />
<glyph unicode="&#xA9;" horiz-adv-x="778" d="M754 334Q754 263 727 200T652 90T542 16T408 -11Q337 -11 274 16T165 90T91 200T64 334Q64 405 91 468T164 578T274 652T408 679Q479 679 542 652T652 578T726 468T754 334ZM726 334Q726 399 701 457T633 558T531 626T408 651Q343 651 286 626T185 558T117 457T92 334Q92 269 117 211T185 110T285 42T408 17Q473 17 531 42T632 110T701 211T726 334ZM521 171Q494 148 462 134T389 120Q344 120 308 134T248 174T210 234T197 307Q197 359 217 403T270 479T345 530T433 549Q539 549 588 469L561 450Q543 485 510 502T433 520Q396 520 360 504T294 460T247 392T229 307Q229 275 240 246T273 196T323 162T389 149Q421 149 452 163T505 197L521 171Z"  />
<glyph unicode="&#xAA;" horiz-adv-x="282" d="M214 614Q192 614 175 594T145 545T127 482T120 423Q120 352 164 352Q182 352 200 370T230 411L262 559Q260 582 247 598T214 614ZM321 640L252 326H211L221 371Q204 342 184 330T148 318Q116 318 98 342T79 422Q79 455 87 494T111 568T151 625T207 648Q226 648 244 634T270 596L280 640H321Z"  />
<glyph unicode="&#xAB;" horiz-adv-x="299" d="M79 63L29 243L159 420H207L74 239L123 63H79ZM182 63L132 243L262 420H310L177 239L226 63H182Z"  />
<glyph unicode="&#xAC;" horiz-adv-x="376" d="M340 216H299L342 412H66L75 452H393L340 216Z"  />
<glyph unicode="&#xAD;" horiz-adv-x="233" d="M24 219L34 265H206L197 219H24Z"  />
<glyph unicode="&#xAE;" horiz-adv-x="494" d="M508 465Q508 421 492 383T446 315T378 270T295 253Q251 253 213 269T146 315T101 382T84 465Q84 509 100 548T146 615T213 660T296 677Q340 677 379 661T446 616T491 548T508 465ZM481 465Q481 504 467 537T427 596T367 635T295 650Q257 650 224 636T165 596T126 538T111 465Q111 427 125 394T165 335T223 295T295 280Q333 280 367 294T426 334T466 393T481 465ZM330 343L288 439H240L219 343H189L242 586H332Q360 586 381 570T402 522Q402 504 395 489T377 463T351 446T322 440L366 343H330ZM370 518Q370 538 358 548T328 558H266L246 468H315Q338 468 354 482T370 518Z"  />
<glyph unicode="&#xAF;" horiz-adv-x="244" d="M77 591L85 627H328L320 591H77Z"  />
<glyph unicode="&#xB0;" horiz-adv-x="280" d="M326 561Q326 537 317 516T292 480T255 455T210 446Q186 446 165 455T129 479T104 516T95 561Q95 585 104 606T128 643T165 668T210 677Q234 677 255 668T291 643T316 606T326 561ZM288 561Q288 577 282 591T265 616T240 633T210 639Q178 639 156 616T133 561Q133 529 155 507T209 484Q241 484 264 506T288 561Z"  />
<glyph unicode="&#xB1;" horiz-adv-x="376" d="M225 317L190 159H147L183 317H45L54 357H192L225 509H268L234 357H372L363 317H225ZM-14 52L-5 92H313L304 52H-14Z"  />
<glyph unicode="&#xB2;" horiz-adv-x="252" d="M72 421L79 455Q139 519 179 563T243 639T278 694T289 738Q289 765 274 778T239 791Q216 791 199 779T164 741L138 767Q160 796 185 811T241 827Q278 827 305 805T333 740Q333 714 321 688T285 630T222 556T130 457H272L265 421H72Z"  />
<glyph unicode="&#xB3;" horiz-adv-x="252" d="M292 544Q292 524 285 502T264 460T228 427T177 414Q139 414 113 433T78 485L113 506Q119 482 135 466T176 450Q195 450 209 460T232 486T245 520T250 555Q250 584 235 596T201 609Q194 609 187 609T176 608L184 645Q188 644 197 644T213 644Q242 644 265 669T288 737Q288 761 275 776T238 791Q215 791 198 778T164 743L138 767Q181 827 241 827Q284 827 307 805T331 740Q331 723 326 704T309 669T283 640T246 624Q268 617 280 596T292 544Z"  />
<glyph unicode="&#xB4;" horiz-adv-x="133" d="M104 556H67L177 700H234L104 556Z"  />
<glyph unicode="&#xB5;" horiz-adv-x="360" d="M-34 -184L114 483H163L78 100Q63 30 111 30Q126 30 141 37T171 57T199 84T222 117L303 483H353L246 0H196L210 64Q187 31 155 10T88 -12Q69 -12 54 -7L15 -184H-34Z"  />
<glyph unicode="&#xB6;" horiz-adv-x="449" d="M253 -100L415 631H321L158 -100H122L216 323Q188 323 163 334T120 367T90 416T79 479Q79 514 93 548T134 608T195 651T273 667H459L289 -100H253Z"  />
<glyph unicode="&#xB7;" horiz-adv-x="217" d="M105 202Q88 202 77 213T66 241Q66 261 79 274T113 287Q129 287 140 276T151 248Q151 228 138 215T105 202Z"  />
<glyph unicode="&#xB8;" horiz-adv-x="158" d="M-12 -189Q-60 -189 -89 -153L-67 -124Q-47 -156 -10 -156Q13 -156 28 -140T44 -102Q44 -74 17 -74Q8 -74 2 -77T-12 -88L-35 -73L15 11H51L9 -57Q14 -52 21 -50T33 -48Q54 -48 67 -63T80 -101Q80 -138 53 -163T-12 -189Z"  />
<glyph unicode="&#xB9;" horiz-adv-x="203" d="M142 421L217 761L146 699L124 726L235 821H273L185 421H142Z"  />
<glyph unicode="&#xBA;" horiz-adv-x="280" d="M168 318Q123 318 102 346T80 426Q80 454 88 492T113 564T155 623T217 648Q263 648 284 620T305 540Q305 512 297 474T272 402T230 343T168 318ZM169 353Q194 353 212 375T241 427T258 489T264 541Q264 612 215 612Q191 612 173 590T144 538T128 476T122 425Q122 353 169 353Z"  />
<glyph unicode="&#xBB;" horiz-adv-x="299" d="M117 420L167 240L37 63H-11L122 244L73 420H117ZM220 420L270 240L140 63H92L225 244L176 420H220Z"  />
<glyph unicode="&#xBC;" horiz-adv-x="545" d="M98 0H62L480 667H517L98 0ZM461 108L438 0H395L419 108H281L289 144L473 400H526L469 143H506L498 108H461ZM472 344L327 143H426L472 344ZM108 267L183 607L112 545L90 572L201 667H239L151 267H108Z"  />
<glyph unicode="&#xBD;" horiz-adv-x="576" d="M98 0H62L480 667H517L98 0ZM303 0L310 34Q370 98 410 142T474 218T509 273T520 317Q520 344 505 357T470 370Q447 370 430 358T395 320L369 346Q391 375 416 390T472 406Q509 406 536 384T564 319Q564 293 552 267T516 209T453 135T361 36H503L496 0H303ZM108 267L183 607L112 545L90 572L201 667H239L151 267H108Z"  />
<glyph unicode="&#xBE;" horiz-adv-x="581" d="M134 0H98L516 667H553L134 0ZM497 108L474 0H431L455 108H317L325 144L509 400H562L505 143H542L534 108H497ZM508 344L363 143H462L508 344ZM258 390Q258 370 251 348T230 306T194 273T143 260Q105 260 79 279T44 331L79 352Q85 328 101 312T142 296Q161 296 175 306T198 332T211 366T216 401Q216 430 201 442T167 455Q160 455 153 455T142 454L150 491Q154 490 163 490T179 490Q208 490 231 515T254 583Q254 607 241 622T204 637Q181 637 164 624T130 589L104 613Q147 673 207 673Q250 673 273 651T297 586Q297 569 292 550T275 515T249 486T212 470Q234 463 246 442T258 390Z"  />
<glyph unicode="&#xBF;" horiz-adv-x="263" d="M180 307Q186 293 189 276T192 244Q192 209 179 182T146 131T104 86T61 42T28 -7T15 -66Q15 -97 33 -122T88 -147Q111 -147 126 -141T160 -121L178 -161Q153 -180 129 -187T79 -195Q50 -195 28 -185T-10 -159T-33 -121T-41 -78Q-41 -40 -28 -9T6 48T50 96T94 141T128 186T142 236Q142 247 140 261T133 286L180 307ZM199 492Q216 492 227 481T238 454Q238 434 225 421T191 408Q175 408 164 419T153 447Q153 467 166 479T199 492Z"  />
<glyph unicode="&#xC0;" d="M287 728L221 872H275L322 728H287ZM221 0L228 166H77L12 0H-45L231 667H293L275 0H221ZM249 598L96 215H232L249 598Z"  />
<glyph unicode="&#xC1;" d="M266 728H229L339 872H396L266 728ZM221 0L228 166H77L12 0H-45L231 667H293L275 0H221ZM249 598L96 215H232L249 598Z"  />
<glyph unicode="&#xC2;" d="M341 728L301 838L217 728H183L282 872H333L371 728H341ZM221 0L228 166H77L12 0H-45L231 667H293L275 0H221ZM249 598L96 215H232L249 598Z"  />
<glyph unicode="&#xC3;" d="M311 726Q295 726 288 733T277 753T272 778T269 803T262 822T247 830Q231 830 218 807T194 732H162Q168 759 176 783T195 826T220 855T254 866Q269 866 277 859T288 839T293 814T296 789T302 770T317 762Q334 762 347 785T372 860H404Q398 833 390 809T370 766T345 737T311 726ZM221 0L228 166H77L12 0H-45L231 667H293L275 0H221ZM249 598L96 215H232L249 598Z"  />
<glyph unicode="&#xC4;" d="M386 771Q386 755 375 744T346 732Q332 732 323 741T314 764Q314 780 326 791T354 803Q368 803 377 794T386 771ZM255 771Q255 755 243 744T215 732Q201 732 192 741T183 764Q183 780 194 791T223 803Q237 803 246 794T255 771ZM221 0L228 166H77L12 0H-45L231 667H293L275 0H221ZM249 598L96 215H232L249 598Z"  />
<glyph unicode="&#xC5;" d="M277 692Q245 692 226 712T206 765Q206 783 213 799T233 827T261 847T295 855Q327 855 346 834T366 781Q366 763 359 747T340 719T311 699T277 692ZM279 722Q302 722 319 738T336 779Q336 798 325 811T293 825Q270 825 253 808T236 768Q236 748 248 735T279 722ZM221 0L228 166H77L12 0H-45L231 667H293L275 0H221ZM249 598L96 215H232L249 598Z"  />
<glyph unicode="&#xC6;" horiz-adv-x="532" d="M201 0L237 166H108L22 0H-36L325 667H577L567 618H391L336 367H504L493 318H324L265 49H440L430 0H201ZM332 592L133 215H248L332 592Z"  />
<glyph unicode="&#xC7;" horiz-adv-x="374" d="M117 -189Q69 -189 40 -153L62 -124Q82 -156 119 -156Q142 -156 157 -140T173 -102Q173 -74 146 -74Q137 -74 131 -77T117 -88L94 -73L132 -8Q90 3 67 45T43 168Q43 204 49 255T68 363T100 476T147 577T210 650T289 678Q317 678 337 668T372 638T394 594T405 539L354 529Q349 579 333 604T284 629Q253 629 228 603T183 535T147 441T121 338T105 240T100 164Q100 95 116 66T168 37Q196 37 219 59T265 124L309 101Q278 47 244 19T166 -12L138 -57Q143 -52 150 -50T162 -48Q183 -48 196 -63T209 -101Q209 -138 182 -163T117 -189Z"  />
<glyph unicode="&#xC8;" horiz-adv-x="341" d="M304 728L238 872H292L339 728H304ZM13 0L160 667H389L379 618H204L148 367H316L305 318H137L77 49H253L242 0H13Z"  />
<glyph unicode="&#xC9;" horiz-adv-x="341" d="M281 728H244L354 872H411L281 728ZM13 0L160 667H389L379 618H204L148 367H316L305 318H137L77 49H253L242 0H13Z"  />
<glyph unicode="&#xCA;" horiz-adv-x="341" d="M356 728L316 838L232 728H198L297 872H348L386 728H356ZM13 0L160 667H389L379 618H204L148 367H316L305 318H137L77 49H253L242 0H13Z"  />
<glyph unicode="&#xCB;" horiz-adv-x="341" d="M400 771Q400 755 389 744T360 732Q346 732 337 741T328 764Q328 780 340 791T368 803Q382 803 391 794T400 771ZM269 771Q269 755 257 744T229 732Q215 732 206 741T197 764Q197 780 208 791T237 803Q251 803 260 794T269 771ZM13 0L160 667H389L379 618H204L148 367H316L305 318H137L77 49H253L242 0H13Z"  />
<glyph unicode="&#xCC;" horiz-adv-x="189" d="M213 728L147 872H201L248 728H213ZM13 0L160 667H214L67 0H13Z"  />
<glyph unicode="&#xCD;" horiz-adv-x="189" d="M193 728H156L266 872H323L193 728ZM13 0L160 667H214L67 0H13Z"  />
<glyph unicode="&#xCE;" horiz-adv-x="189" d="M267 728L227 838L143 728H109L208 872H259L297 728H267ZM13 0L160 667H214L67 0H13Z"  />
<glyph unicode="&#xCF;" horiz-adv-x="189" d="M314 771Q314 755 303 744T274 732Q260 732 251 741T242 764Q242 780 254 791T282 803Q296 803 305 794T314 771ZM183 771Q183 755 171 744T143 732Q129 732 120 741T111 764Q111 780 122 791T151 803Q165 803 174 794T183 771ZM13 0L160 667H214L67 0H13Z"  />
<glyph unicode="&#xD0;" horiz-adv-x="424" d="M31 0L99 311H38L48 357H109L178 667H286Q309 667 332 657T373 624T402 564T414 475Q414 451 409 407T392 309T360 202T310 102T238 29T142 0H31ZM153 311L95 49H151Q190 49 220 75T274 141T313 231T339 328T353 414T358 474Q358 513 351 540T333 585T307 610T276 618H222L163 357H254L244 311H153Z"  />
<glyph unicode="&#xD1;" horiz-adv-x="416" d="M355 726Q339 726 332 733T321 753T316 778T313 803T306 822T291 830Q275 830 262 807T238 732H206Q212 759 220 783T239 826T264 855T298 866Q314 866 321 859T332 839T337 814T340 789T346 770T361 762Q378 762 391 785T416 860H448Q442 833 434 809T414 766T389 737T355 726ZM242 0L185 534L67 0H13L160 667H214L271 142L387 667H441L294 0H242Z"  />
<glyph unicode="&#xD2;" horiz-adv-x="415" d="M325 728L259 872H313L360 728H325ZM163 -12Q130 -12 107 2T70 41T50 98T43 168Q43 202 49 253T68 361T101 474T148 576T210 649T289 678Q322 678 345 664T382 624T403 566T410 497Q410 463 404 412T385 304T352 191T305 89T242 16T163 -12ZM168 37Q197 37 222 62T267 127T304 218T331 320T347 418T353 500Q353 559 338 594T284 629Q254 629 229 604T184 539T148 447T122 345T106 246T100 164Q100 105 115 71T168 37Z"  />
<glyph unicode="&#xD3;" horiz-adv-x="415" d="M305 728H268L378 872H435L305 728ZM163 -12Q130 -12 107 2T70 41T50 98T43 168Q43 202 49 253T68 361T101 474T148 576T210 649T289 678Q322 678 345 664T382 624T403 566T410 497Q410 463 404 412T385 304T352 191T305 89T242 16T163 -12ZM168 37Q197 37 222 62T267 127T304 218T331 320T347 418T353 500Q353 559 338 594T284 629Q254 629 229 604T184 539T148 447T122 345T106 246T100 164Q100 105 115 71T168 37Z"  />
<glyph unicode="&#xD4;" horiz-adv-x="415" d="M379 728L339 838L255 728H221L320 872H371L409 728H379ZM163 -12Q130 -12 107 2T70 41T50 98T43 168Q43 202 49 253T68 361T101 474T148 576T210 649T289 678Q322 678 345 664T382 624T403 566T410 497Q410 463 404 412T385 304T352 191T305 89T242 16T163 -12ZM168 37Q197 37 222 62T267 127T304 218T331 320T347 418T353 500Q353 559 338 594T284 629Q254 629 229 604T184 539T148 447T122 345T106 246T100 164Q100 105 115 71T168 37Z"  />
<glyph unicode="&#xD5;" horiz-adv-x="415" d="M358 726Q342 726 335 733T324 753T319 778T316 803T309 822T294 830Q278 830 265 807T241 732H209Q215 759 223 783T242 826T267 855T301 866Q316 866 324 859T335 839T340 814T343 789T349 770T364 762Q381 762 394 785T419 860H451Q445 833 437 809T417 766T392 737T358 726ZM163 -12Q130 -12 107 2T70 41T50 98T43 168Q43 202 49 253T68 361T101 474T148 576T210 649T289 678Q322 678 345 664T382 624T403 566T410 497Q410 463 404 412T385 304T352 191T305 89T242 16T163 -12ZM168 37Q197 37 222 62T267 127T304 218T331 320T347 418T353 500Q353 559 338 594T284 629Q254 629 229 604T184 539T148 447T122 345T106 246T100 164Q100 105 115 71T168 37Z"  />
<glyph unicode="&#xD6;" horiz-adv-x="415" d="M424 771Q424 755 413 744T384 732Q370 732 361 741T352 764Q352 780 364 791T392 803Q406 803 415 794T424 771ZM293 771Q293 755 281 744T253 732Q239 732 230 741T221 764Q221 780 232 791T261 803Q275 803 284 794T293 771ZM163 -12Q130 -12 107 2T70 41T50 98T43 168Q43 202 49 253T68 361T101 474T148 576T210 649T289 678Q322 678 345 664T382 624T403 566T410 497Q410 463 404 412T385 304T352 191T305 89T242 16T163 -12ZM168 37Q197 37 222 62T267 127T304 218T331 320T347 418T353 500Q353 559 338 594T284 629Q254 629 229 604T184 539T148 447T122 345T106 246T100 164Q100 105 115 71T168 37Z"  />
<glyph unicode="&#xD7;" horiz-adv-x="376" d="M204 306L69 195L44 226L180 337L95 445L127 471L211 362L346 473L371 442L236 331L320 223L288 197L204 306Z"  />
<glyph unicode="&#xD8;" horiz-adv-x="415" d="M163 -12Q130 -12 107 2T70 40L46 0H4L53 82Q48 101 46 123T43 168Q43 202 49 253T68 361T101 474T148 576T210 649T289 678Q321 678 344 664T382 624L408 667H451L399 582Q410 543 410 497Q410 463 404 412T385 304T352 191T305 89T242 16T163 -12ZM100 158L347 566Q340 595 325 612T284 629Q254 629 229 604T184 539T148 447T122 345T106 246T100 164V158ZM168 37Q197 37 222 62T267 127T304 218T331 320T347 418T353 500V505L106 98Q112 69 127 53T168 37Z"  />
<glyph unicode="&#xD9;" horiz-adv-x="416" d="M326 728L260 872H314L361 728H326ZM170 -12Q115 -12 80 21T45 117Q45 142 50 164L160 667H214L103 162Q101 156 100 144T98 123Q98 79 120 58T174 37Q213 37 237 65T277 162L388 667H442L331 163Q311 71 272 30T170 -12Z"  />
<glyph unicode="&#xDA;" horiz-adv-x="416" d="M305 728H268L378 872H435L305 728ZM170 -12Q115 -12 80 21T45 117Q45 142 50 164L160 667H214L103 162Q101 156 100 144T98 123Q98 79 120 58T174 37Q213 37 237 65T277 162L388 667H442L331 163Q311 71 272 30T170 -12Z"  />
<glyph unicode="&#xDB;" horiz-adv-x="416" d="M379 728L339 838L255 728H221L320 872H371L409 728H379ZM170 -12Q115 -12 80 21T45 117Q45 142 50 164L160 667H214L103 162Q101 156 100 144T98 123Q98 79 120 58T174 37Q213 37 237 65T277 162L388 667H442L331 163Q311 71 272 30T170 -12Z"  />
<glyph unicode="&#xDC;" horiz-adv-x="416" d="M425 771Q425 755 414 744T385 732Q371 732 362 741T353 764Q353 780 365 791T393 803Q407 803 416 794T425 771ZM294 771Q294 755 282 744T254 732Q240 732 231 741T222 764Q222 780 233 791T262 803Q276 803 285 794T294 771ZM170 -12Q115 -12 80 21T45 117Q45 142 50 164L160 667H214L103 162Q101 156 100 144T98 123Q98 79 120 58T174 37Q213 37 237 65T277 162L388 667H442L331 163Q311 71 272 30T170 -12Z"  />
<glyph unicode="&#xDD;" horiz-adv-x="347" d="M275 728H238L348 872H405L275 728ZM93 0L156 286L94 667H149L192 344L380 667H439L210 286L146 0H93Z"  />
<glyph unicode="&#xDE;" horiz-adv-x="364" d="M13 0L160 667H214L187 542H240Q294 542 326 503T359 399Q359 360 348 317T314 238T253 178T163 154H101L67 0H13ZM169 203Q202 203 227 220T268 265T293 327T302 396Q302 441 283 467T228 494H176L112 203H169Z"  />
<glyph unicode="&#xDF;" horiz-adv-x="424" d="M382 133Q382 106 373 80T346 34T303 1T247 -12Q207 -12 178 3T128 52L161 85Q173 65 191 48T244 30Q260 30 275 37T303 57T322 89T330 130Q330 161 312 183T271 228T230 277T211 345Q211 376 222 398T249 437T284 467T319 494T346 524T357 565Q357 596 338 614T282 633Q250 633 224 610T184 531L67 0H18L135 531Q151 602 191 639T286 677Q340 677 373 648T406 570Q406 539 395 518T368 481T333 453T298 426T271 395T260 354Q260 322 279 299T321 254T363 203T382 133Z"  />
<glyph unicode="&#xE0;" horiz-adv-x="359" d="M259 556L193 700H247L294 556H259ZM203 0L213 48Q196 19 171 4T118 -12Q77 -12 47 17T17 105Q17 143 27 180T57 245T104 291T166 309Q178 309 191 305T217 293T240 271T255 240L278 339Q281 354 282 363T284 385Q284 419 265 436T214 453Q190 453 165 442T116 407L100 446Q126 469 158 482T222 495Q273 495 304 471T335 398Q335 384 334 373T328 343L252 0H203ZM136 27Q158 27 180 42T222 91L247 198Q241 233 221 251T171 270Q146 270 127 254T96 214T77 162T70 108Q70 66 88 47T136 27Z"  />
<glyph unicode="&#xE1;" horiz-adv-x="359" d="M240 556H203L313 700H370L240 556ZM203 0L213 48Q196 19 171 4T118 -12Q77 -12 47 17T17 105Q17 143 27 180T57 245T104 291T166 309Q178 309 191 305T217 293T240 271T255 240L278 339Q281 354 282 363T284 385Q284 419 265 436T214 453Q190 453 165 442T116 407L100 446Q126 469 158 482T222 495Q273 495 304 471T335 398Q335 384 334 373T328 343L252 0H203ZM136 27Q158 27 180 42T222 91L247 198Q241 233 221 251T171 270Q146 270 127 254T96 214T77 162T70 108Q70 66 88 47T136 27Z"  />
<glyph unicode="&#xE2;" horiz-adv-x="359" d="M314 556L274 666L190 556H156L255 700H306L344 556H314ZM203 0L213 48Q196 19 171 4T118 -12Q77 -12 47 17T17 105Q17 143 27 180T57 245T104 291T166 309Q178 309 191 305T217 293T240 271T255 240L278 339Q281 354 282 363T284 385Q284 419 265 436T214 453Q190 453 165 442T116 407L100 446Q126 469 158 482T222 495Q273 495 304 471T335 398Q335 384 334 373T328 343L252 0H203ZM136 27Q158 27 180 42T222 91L247 198Q241 233 221 251T171 270Q146 270 127 254T96 214T77 162T70 108Q70 66 88 47T136 27Z"  />
<glyph unicode="&#xE3;" horiz-adv-x="359" d="M293 554Q277 554 270 561T259 581T254 606T251 631T244 650T229 658Q213 658 200 635T176 560H144Q150 587 158 611T177 654T202 683T236 694Q251 694 259 687T270 667T275 642T278 617T284 598T299 590Q316 590 329 613T354 688H386Q380 661 372 637T352 594T327 565T293 554ZM203 0L213 48Q196 19 171 4T118 -12Q77 -12 47 17T17 105Q17 143 27 180T57 245T104 291T166 309Q178 309 191 305T217 293T240 271T255 240L278 339Q281 354 282 363T284 385Q284 419 265 436T214 453Q190 453 165 442T116 407L100 446Q126 469 158 482T222 495Q273 495 304 471T335 398Q335 384 334 373T328 343L252 0H203ZM136 27Q158 27 180 42T222 91L247 198Q241 233 221 251T171 270Q146 270 127 254T96 214T77 162T70 108Q70 66 88 47T136 27Z"  />
<glyph unicode="&#xE4;" horiz-adv-x="359" d="M359 604Q359 588 348 577T319 565Q305 565 296 574T287 597Q287 613 299 624T327 636Q341 636 350 627T359 604ZM228 604Q228 588 216 577T188 565Q174 565 165 574T156 597Q156 613 167 624T196 636Q210 636 219 627T228 604ZM203 0L213 48Q196 19 171 4T118 -12Q77 -12 47 17T17 105Q17 143 27 180T57 245T104 291T166 309Q178 309 191 305T217 293T240 271T255 240L278 339Q281 354 282 363T284 385Q284 419 265 436T214 453Q190 453 165 442T116 407L100 446Q126 469 158 482T222 495Q273 495 304 471T335 398Q335 384 334 373T328 343L252 0H203ZM136 27Q158 27 180 42T222 91L247 198Q241 233 221 251T171 270Q146 270 127 254T96 214T77 162T70 108Q70 66 88 47T136 27Z"  />
<glyph unicode="&#xE5;" horiz-adv-x="359" d="M257 557Q225 557 206 577T186 630Q186 648 193 664T213 692T241 712T275 720Q307 720 326 699T346 646Q346 628 339 612T320 584T291 564T257 557ZM259 587Q282 587 299 603T316 644Q316 663 305 676T273 690Q250 690 233 673T216 633Q216 613 228 600T259 587ZM203 0L213 48Q196 19 171 4T118 -12Q77 -12 47 17T17 105Q17 143 27 180T57 245T104 291T166 309Q178 309 191 305T217 293T240 271T255 240L278 339Q281 354 282 363T284 385Q284 419 265 436T214 453Q190 453 165 442T116 407L100 446Q126 469 158 482T222 495Q273 495 304 471T335 398Q335 384 334 373T328 343L252 0H203ZM136 27Q158 27 180 42T222 91L247 198Q241 233 221 251T171 270Q146 270 127 254T96 214T77 162T70 108Q70 66 88 47T136 27Z"  />
<glyph unicode="&#xE6;" horiz-adv-x="571" d="M300 226Q291 182 291 146Q291 93 311 62T373 30Q394 30 417 45T460 89L487 58Q460 25 432 7T369 -12Q343 -12 324 -5T291 15T268 44T255 77Q245 63 232 47T203 18T166 -3T120 -12Q75 -12 46 18T17 106Q17 147 28 184T58 248T105 292T165 309Q177 309 191 306T217 294T240 274T256 244L278 339Q283 367 283 384Q283 453 214 453Q189 453 166 443T116 407L100 446Q158 495 222 495Q274 495 296 472T320 408Q340 446 369 470T438 495Q487 495 517 462T548 352Q548 321 543 287T530 226H300ZM489 265Q500 306 500 347Q500 391 484 422T432 453Q405 453 385 434T350 387T325 326T309 265H489ZM242 112Q241 120 241 125T241 141Q241 155 243 172T247 198Q241 237 218 253T171 270Q147 270 129 256T97 218T77 165T70 108Q70 67 87 47T135 27Q167 27 194 50T242 112Z"  />
<glyph unicode="&#xE7;" horiz-adv-x="306" d="M101 -189Q53 -189 24 -153L46 -124Q66 -156 103 -156Q126 -156 141 -140T157 -102Q157 -74 130 -74Q121 -74 115 -77T101 -88L78 -73L116 -8Q75 1 52 39T29 147Q29 195 41 255T79 369T142 458T232 495Q262 495 285 482T322 446L291 411Q280 432 264 441T231 451Q205 451 184 436T147 394T118 336T97 269T85 202T81 144Q81 84 101 58T154 32Q174 32 189 41T219 66L237 28Q214 7 195 -2T150 -12L122 -57Q127 -52 134 -50T146 -48Q167 -48 180 -63T193 -101Q193 -138 166 -163T101 -189Z"  />
<glyph unicode="&#xE8;" horiz-adv-x="359" d="M157 -12Q97 -12 63 27T28 147Q28 169 32 203T45 276T70 354T107 424T158 475T224 495Q273 495 304 463T336 352Q336 320 331 287T318 226H86Q77 182 77 146Q77 94 97 62T161 30Q184 30 207 46T248 89L275 58Q220 -12 157 -12ZM277 265Q282 287 285 307T288 350Q288 371 284 389T272 422T252 444T221 453Q194 453 173 434T136 387T110 326T93 265H271H277ZM265 556L199 700H253L300 556H265Z"  />
<glyph unicode="&#xE9;" horiz-adv-x="359" d="M157 -12Q97 -12 63 27T28 147Q28 169 32 203T45 276T70 354T107 424T158 475T224 495Q273 495 304 463T336 352Q336 320 331 287T318 226H86Q77 182 77 146Q77 94 97 62T161 30Q184 30 207 46T248 89L275 58Q220 -12 157 -12ZM277 265Q282 287 285 307T288 350Q288 371 284 389T272 422T252 444T221 453Q194 453 173 434T136 387T110 326T93 265H271H277ZM243 556H206L316 700H373L243 556Z"  />
<glyph unicode="&#xEA;" horiz-adv-x="359" d="M157 -12Q97 -12 63 27T28 147Q28 169 32 203T45 276T70 354T107 424T158 475T224 495Q273 495 304 463T336 352Q336 320 331 287T318 226H86Q77 182 77 146Q77 94 97 62T161 30Q184 30 207 46T248 89L275 58Q220 -12 157 -12ZM277 265Q282 287 285 307T288 350Q288 371 284 389T272 422T252 444T221 453Q194 453 173 434T136 387T110 326T93 265H271H277ZM317 556L277 666L193 556H159L258 700H309L347 556H317Z"  />
<glyph unicode="&#xEB;" horiz-adv-x="359" d="M157 -12Q97 -12 63 27T28 147Q28 169 32 203T45 276T70 354T107 424T158 475T224 495Q273 495 304 463T336 352Q336 320 331 287T318 226H86Q77 182 77 146Q77 94 97 62T161 30Q184 30 207 46T248 89L275 58Q220 -12 157 -12ZM277 265Q282 287 285 307T288 350Q288 371 284 389T272 422T252 444T221 453Q194 453 173 434T136 387T110 326T93 265H271H277ZM362 604Q362 588 351 577T322 565Q308 565 299 574T290 597Q290 613 302 624T330 636Q344 636 353 627T362 604ZM231 604Q231 588 219 577T191 565Q177 565 168 574T159 597Q159 613 170 624T199 636Q213 636 222 627T231 604Z"  />
<glyph unicode="&#xEC;" horiz-adv-x="170" d="M165 556L99 700H153L200 556H165ZM7 0L114 483H163L56 0H7Z"  />
<glyph unicode="&#xED;" horiz-adv-x="170" d="M144 556H107L217 700H274L144 556ZM7 0L114 483H163L56 0H7Z"  />
<glyph unicode="&#xEE;" horiz-adv-x="170" d="M219 556L179 666L95 556H61L160 700H211L249 556H219ZM7 0L114 483H163L56 0H7Z"  />
<glyph unicode="&#xEF;" horiz-adv-x="170" d="M265 604Q265 588 254 577T225 565Q211 565 202 574T193 597Q193 613 205 624T233 636Q247 636 256 627T265 604ZM134 604Q134 588 122 577T94 565Q80 565 71 574T62 597Q62 613 73 624T102 636Q116 636 125 627T134 604ZM7 0L114 483H163L56 0H7Z"  />
<glyph unicode="&#xF0;" horiz-adv-x="367" d="M164 555L274 588Q269 611 263 631T251 667L302 684Q315 641 324 603L401 626L408 595L331 571Q340 527 342 489T345 411Q345 372 340 326T325 232T299 141T261 63T209 9T144 -12Q84 -12 56 27T28 142Q28 175 33 213T50 290T77 364T114 427T160 471T216 488Q245 488 266 471T296 418Q295 446 292 482T281 556L171 523L164 555ZM144 32Q167 32 186 49T222 93T250 154T270 224T282 290T286 345Q286 361 283 378T272 410T252 434T220 444Q197 444 178 427T142 383T115 323T95 255T83 190T79 138Q79 106 84 86T98 53T119 37T144 32Z"  />
<glyph unicode="&#xF1;" horiz-adv-x="360" d="M196 0L281 382Q283 388 284 396T285 409Q285 432 275 441T244 451Q229 451 214 444T184 423T158 394T135 362L56 0H7L114 483H163L148 417Q171 450 199 472T263 495Q298 495 317 477T337 425Q337 420 336 409T332 392L246 0H196ZM294 554Q279 554 271 561T260 581T255 606T252 631T245 650T230 658Q214 658 201 635T177 560H145Q151 587 159 611T178 654T203 683T237 694Q253 694 260 687T271 667T276 642T279 617T285 598T300 590Q317 590 330 613T355 688H387Q381 661 373 637T353 594T328 565T294 554Z"  />
<glyph unicode="&#xF2;" horiz-adv-x="367" d="M140 -12Q89 -12 59 23T28 137Q28 171 33 210T50 290T77 367T116 432T165 478T226 495Q277 495 307 460T338 346Q338 312 333 273T316 193T289 116T250 51T201 5T140 -12ZM143 32Q166 32 185 48T221 91T249 151T269 220T282 288T287 346Q287 406 270 428T223 451Q200 451 181 435T145 392T117 331T97 262T84 194T79 136Q79 76 96 54T143 32ZM264 556L198 700H252L299 556H264Z"  />
<glyph unicode="&#xF3;" horiz-adv-x="367" d="M140 -12Q89 -12 59 23T28 137Q28 171 33 210T50 290T77 367T116 432T165 478T226 495Q277 495 307 460T338 346Q338 312 333 273T316 193T289 116T250 51T201 5T140 -12ZM143 32Q166 32 185 48T221 91T249 151T269 220T282 288T287 346Q287 406 270 428T223 451Q200 451 181 435T145 392T117 331T97 262T84 194T79 136Q79 76 96 54T143 32ZM243 556H206L316 700H373L243 556Z"  />
<glyph unicode="&#xF4;" horiz-adv-x="367" d="M140 -12Q89 -12 59 23T28 137Q28 171 33 210T50 290T77 367T116 432T165 478T226 495Q277 495 307 460T338 346Q338 312 333 273T316 193T289 116T250 51T201 5T140 -12ZM143 32Q166 32 185 48T221 91T249 151T269 220T282 288T287 346Q287 406 270 428T223 451Q200 451 181 435T145 392T117 331T97 262T84 194T79 136Q79 76 96 54T143 32ZM317 556L277 666L193 556H159L258 700H309L347 556H317Z"  />
<glyph unicode="&#xF5;" horiz-adv-x="367" d="M140 -12Q89 -12 59 23T28 137Q28 171 33 210T50 290T77 367T116 432T165 478T226 495Q277 495 307 460T338 346Q338 312 333 273T316 193T289 116T250 51T201 5T140 -12ZM143 32Q166 32 185 48T221 91T249 151T269 220T282 288T287 346Q287 406 270 428T223 451Q200 451 181 435T145 392T117 331T97 262T84 194T79 136Q79 76 96 54T143 32ZM296 554Q280 554 273 561T262 581T257 606T254 631T247 650T232 658Q216 658 203 635T179 560H147Q153 587 161 611T180 654T205 683T239 694Q254 694 262 687T273 667T278 642T281 617T287 598T302 590Q319 590 332 613T357 688H389Q383 661 375 637T355 594T330 565T296 554Z"  />
<glyph unicode="&#xF6;" horiz-adv-x="367" d="M140 -12Q89 -12 59 23T28 137Q28 171 33 210T50 290T77 367T116 432T165 478T226 495Q277 495 307 460T338 346Q338 312 333 273T316 193T289 116T250 51T201 5T140 -12ZM143 32Q166 32 185 48T221 91T249 151T269 220T282 288T287 346Q287 406 270 428T223 451Q200 451 181 435T145 392T117 331T97 262T84 194T79 136Q79 76 96 54T143 32ZM364 604Q364 588 353 577T324 565Q310 565 301 574T292 597Q292 613 304 624T332 636Q346 636 355 627T364 604ZM233 604Q233 588 221 577T193 565Q179 565 170 574T161 597Q161 613 172 624T201 636Q215 636 224 627T233 604Z"  />
<glyph unicode="&#xF7;" horiz-adv-x="374" d="M45 317L54 357H370L361 317H45ZM173 155Q158 155 148 165T138 190Q138 207 150 219T180 231Q195 231 205 221T215 196Q215 179 203 167T173 155ZM236 439Q222 439 212 449T201 474Q201 491 213 503T244 515Q258 515 268 505T279 480Q279 463 267 451T236 439Z"  />
<glyph unicode="&#xF8;" horiz-adv-x="367" d="M-4 0L38 61Q28 91 28 137Q28 171 33 210T50 290T77 367T116 432T165 478T226 495Q252 495 274 485T310 455L330 483H369L327 422Q338 391 338 346Q338 312 333 273T316 193T289 116T250 51T201 5T140 -12Q84 -12 55 28L36 0H-4ZM143 32Q166 32 185 48T221 91T249 151T269 220T282 288T287 346Q287 351 287 355T286 363L87 74Q95 51 109 42T143 32ZM79 120L279 409Q271 432 257 441T223 451Q200 451 181 435T145 392T117 331T97 262T84 194T79 136V120Z"  />
<glyph unicode="&#xF9;" horiz-adv-x="360" d="M163 483L78 101Q76 94 76 87T75 74Q75 51 85 42T115 32Q145 32 173 57T222 116L303 483H353L246 0H196L211 66Q188 33 160 11T96 -12Q61 -12 42 6T22 58Q22 63 23 74T27 91L114 483H163ZM261 556L195 700H249L296 556H261Z"  />
<glyph unicode="&#xFA;" horiz-adv-x="360" d="M163 483L78 101Q76 94 76 87T75 74Q75 51 85 42T115 32Q145 32 173 57T222 116L303 483H353L246 0H196L211 66Q188 33 160 11T96 -12Q61 -12 42 6T22 58Q22 63 23 74T27 91L114 483H163ZM240 556H203L313 700H370L240 556Z"  />
<glyph unicode="&#xFB;" horiz-adv-x="360" d="M163 483L78 101Q76 94 76 87T75 74Q75 51 85 42T115 32Q145 32 173 57T222 116L303 483H353L246 0H196L211 66Q188 33 160 11T96 -12Q61 -12 42 6T22 58Q22 63 23 74T27 91L114 483H163ZM315 556L275 666L191 556H157L256 700H307L345 556H315Z"  />
<glyph unicode="&#xFC;" horiz-adv-x="360" d="M163 483L78 101Q76 94 76 87T75 74Q75 51 85 42T115 32Q145 32 173 57T222 116L303 483H353L246 0H196L211 66Q188 33 160 11T96 -12Q61 -12 42 6T22 58Q22 63 23 74T27 91L114 483H163ZM362 604Q362 588 351 577T322 565Q308 565 299 574T290 597Q290 613 302 624T330 636Q344 636 353 627T362 604ZM231 604Q231 588 219 577T191 565Q177 565 168 574T159 597Q159 613 170 624T199 636Q213 636 222 627T231 604Z"  />
<glyph unicode="&#xFD;" horiz-adv-x="360" d="M239 556H202L312 700H369L239 556ZM82 -196Q45 -196 12 -181T-38 -142L-6 -103Q8 -127 33 -139T83 -152Q124 -152 149 -123T189 -31L212 72Q189 38 161 15T97 -8Q60 -8 42 11T23 63Q23 80 27 95L114 483H163L78 105Q75 90 75 78Q75 58 84 47T116 36Q146 36 174 62T223 121L303 483H353L238 -31Q220 -111 184 -153T82 -196Z"  />
<glyph unicode="&#xFE;" horiz-adv-x="368" d="M155 -12Q129 -12 106 8T71 73L15 -184H-34L154 667H203L148 419Q193 495 249 495Q294 495 317 459T340 357Q340 328 335 289T320 209T295 129T259 58T212 7T155 -12ZM151 32Q173 32 192 49T226 95T253 158T273 230T285 299T289 355Q289 406 274 428T230 451Q217 451 204 444T178 424T154 395T135 361L82 124Q83 105 89 89T105 60T126 40T151 32Z"  />
<glyph unicode="&#xFF;" horiz-adv-x="360" d="M360 604Q360 588 349 577T320 565Q306 565 297 574T288 597Q288 613 300 624T328 636Q342 636 351 627T360 604ZM229 604Q229 588 217 577T189 565Q175 565 166 574T157 597Q157 613 168 624T197 636Q211 636 220 627T229 604ZM82 -196Q45 -196 12 -181T-38 -142L-6 -103Q8 -127 33 -139T83 -152Q124 -152 149 -123T189 -31L212 72Q189 38 161 15T97 -8Q60 -8 42 11T23 63Q23 80 27 95L114 483H163L78 105Q75 90 75 78Q75 58 84 47T116 36Q146 36 174 62T223 121L303 483H353L238 -31Q220 -111 184 -153T82 -196Z"  />
<glyph unicode="&#x152;" horiz-adv-x="578" d="M247 0L262 73Q246 46 230 30T198 4T170 -9T146 -12Q95 -12 69 37T43 168Q43 203 49 255T69 363T102 476T151 576T215 649T296 677Q306 677 318 674T343 662T364 637T378 594L394 667H623L613 618H437L381 367H550L539 318H370L311 49H486L476 0H247ZM356 494Q355 561 340 594T291 628Q260 628 234 603T186 538T148 448T122 346T106 246T100 164Q100 138 102 115T112 75T131 47T161 37Q195 37 227 73T285 173L356 494Z"  />
<glyph unicode="&#x153;" horiz-adv-x="589" d="M319 226Q318 221 317 210T315 185T312 161T311 146Q311 86 333 58T393 30Q435 30 479 89L505 58Q451 -12 389 -12Q335 -12 307 20T275 108Q249 52 216 20T138 -12Q28 -12 28 137Q28 175 33 216T50 297T78 373T117 436T165 479T224 495Q269 495 293 465T322 380Q348 436 381 465T456 495Q566 495 566 352Q566 317 561 283T548 226H319ZM507 265Q509 272 511 283T514 307T517 330T518 350Q518 453 453 453Q426 453 405 435T369 388T344 327T328 265H507ZM283 346Q283 401 268 426T221 451Q198 451 179 435T144 392T116 332T96 263T83 195T79 136Q79 31 141 31Q164 31 183 47T218 91T246 153T267 222T279 289T283 346Z"  />
<glyph unicode="&#x160;" horiz-adv-x="324" d="M263 728L225 872H255L294 762L379 872H413L314 728H263ZM114 -12Q74 -12 39 6T-14 53L24 93Q37 68 62 53T113 37Q135 37 156 47T194 76T221 123T231 187Q231 230 210 264T164 333T117 406T96 494Q96 533 109 567T145 625T197 664T258 678Q290 678 320 666T369 627L335 587Q307 629 258 629Q234 629 215 619T181 591T160 550T152 500Q152 462 173 429T219 360T265 284T286 192Q286 148 273 111T237 47T182 4T114 -12Z"  />
<glyph unicode="&#x161;" horiz-adv-x="294" d="M101 -12Q63 -12 33 4T-14 53L20 84Q31 59 52 44T104 29Q122 29 137 37T165 58T184 89T191 126Q191 149 182 168T158 204T128 237T98 271T75 310T65 360Q65 387 74 411T100 454T141 484T196 495Q227 495 254 480T298 438L266 407Q256 430 236 442T193 454Q158 454 136 430T113 369Q113 337 133 312T176 262T220 208T240 136Q240 106 230 79T201 32T157 0T101 -12ZM197 556L159 700H189L228 590L313 700H347L248 556H197Z"  />
<glyph unicode="&#x178;" horiz-adv-x="347" d="M394 771Q394 755 383 744T354 732Q340 732 331 741T322 764Q322 780 334 791T362 803Q376 803 385 794T394 771ZM263 771Q263 755 251 744T223 732Q209 732 200 741T191 764Q191 780 202 791T231 803Q245 803 254 794T263 771ZM93 0L156 286L94 667H149L192 344L380 667H439L210 286L146 0H93Z"  />
<glyph unicode="&#x17D;" horiz-adv-x="324" d="M246 728L208 872H238L277 762L362 872H396L297 728H246ZM-20 0L-10 49L304 618H117L127 667H376L366 620L51 49H246L236 0H-20Z"  />
<glyph unicode="&#x17E;" horiz-adv-x="289" d="M-16 0L-8 40L234 439H81L91 483H300L291 443L50 44H206L197 0H-16ZM187 556L149 700H179L218 590L303 700H337L238 556H187Z"  />
<glyph unicode="&#x192;" horiz-adv-x="349" d="M-28 -161L65 261H17V307H75L136 580Q146 625 172 651T239 677Q256 677 274 671T305 650L279 613Q272 621 263 624T244 628Q218 628 206 612T189 570L131 307H226V261H120L26 -161H-28Z"  />
<glyph unicode="&#x2C6;" horiz-adv-x="188" d="M227 556L187 666L103 556H69L168 700H219L257 556H227Z"  />
<glyph unicode="&#x2DC;" horiz-adv-x="214" d="M219 554Q203 554 196 561T185 581T180 606T177 631T170 650T155 658Q139 658 126 635T102 560H70Q76 587 84 611T103 654T128 683T162 694Q177 694 185 687T196 667T201 642T204 617T210 598T225 590Q242 590 255 613T280 688H312Q306 661 298 637T278 594T253 565T219 554Z"  />
<glyph unicode="&#x2013;" horiz-adv-x="460" d="M24 219L34 265H434L424 219H24Z"  />
<glyph unicode="&#x2014;" horiz-adv-x="640" d="M24 219L34 265H614L604 219H24Z"  />
<glyph unicode="&#x2018;" horiz-adv-x="218" d="M129 533Q129 554 137 575T160 616T192 651T230 677L253 652Q225 638 204 615T176 568H183Q197 568 206 558T216 533Q216 513 202 500T170 487Q153 487 141 498T129 533Z"  />
<glyph unicode="&#x2019;" horiz-adv-x="218" d="M240 630Q240 609 232 588T209 548T177 513T139 487L116 512Q144 526 165 549T193 596H186Q172 596 163 606T153 631Q153 651 166 664T199 677Q216 677 228 665T240 630Z"  />
<glyph unicode="&#x201A;" horiz-adv-x="218" d="M106 28Q106 7 98 -14T75 -55T43 -90T5 -116L-18 -90Q10 -76 31 -53T59 -6H52Q39 -6 29 4T19 29Q19 48 33 61T65 75Q82 75 94 63T106 28Z"  />
<glyph unicode="&#x201C;" horiz-adv-x="357" d="M267 533Q267 554 275 575T298 616T330 651T367 677L391 652Q363 638 342 615T314 568H320Q334 568 344 558T354 533Q354 513 340 500T308 487Q291 487 279 498T267 533ZM130 533Q130 554 138 575T161 616T193 651T230 677L254 652Q226 638 205 615T176 568H183Q197 568 206 558T216 533Q216 513 203 500T171 487Q154 487 142 498T130 533Z"  />
<glyph unicode="&#x201D;" horiz-adv-x="357" d="M240 630Q240 609 232 588T209 548T177 513T139 487L116 512Q144 526 165 549T193 596H186Q172 596 163 606T153 631Q153 651 166 664T199 677Q216 677 228 665T240 630ZM377 630Q377 609 369 588T346 548T314 513T276 487L253 512Q281 526 302 549T330 596H323Q309 596 300 606T290 631Q290 651 304 664T336 677Q353 677 365 665T377 630Z"  />
<glyph unicode="&#x201E;" horiz-adv-x="357" d="M106 28Q106 7 98 -14T75 -55T43 -90T5 -116L-18 -90Q10 -76 31 -53T59 -6H52Q39 -6 29 4T19 29Q19 48 33 61T65 75Q82 75 94 63T106 28ZM243 28Q243 7 235 -14T212 -55T180 -90T143 -116L119 -90Q147 -76 168 -53T196 -6H189Q176 -6 166 4T156 29Q156 48 170 61T202 75Q219 75 231 63T243 28Z"  />
<glyph unicode="&#x2020;" horiz-adv-x="256" d="M208 540L165 327H127L178 540L88 536L96 570L184 567L205 677H243L214 567L304 570L296 536L208 540Z"  />
<glyph unicode="&#x2021;" horiz-adv-x="256" d="M296 536L208 540L159 318L249 322L241 288L153 291L132 180H94L123 291L33 288L41 322L129 318L178 540L88 536L96 570L184 567L205 677H243L214 567L304 570L296 536Z"  />
<glyph unicode="&#x2022;" horiz-adv-x="358" d="M282 252Q282 229 273 209T248 174T211 150T168 141Q128 141 102 167T76 233Q76 255 85 275T110 311T146 335T190 344Q230 344 256 318T282 252Z"  />
<glyph unicode="&#x2026;" horiz-adv-x="652" d="M58 -10Q41 -10 30 1T19 29Q19 49 32 62T66 75Q82 75 93 64T104 36Q104 16 91 3T58 -10ZM275 -10Q258 -10 248 1T237 29Q237 49 250 62T283 75Q300 75 310 64T321 36Q321 16 308 3T275 -10ZM492 -10Q476 -10 465 1T454 29Q454 49 467 62T500 75Q517 75 528 64T539 36Q539 16 526 3T492 -10Z"  />
<glyph unicode="&#x2030;" horiz-adv-x="829" d="M74 0L492 667H529L110 0H74ZM370 -12Q344 -12 325 -2T294 24T277 63T271 108Q271 151 283 189T316 255T362 299T415 315Q441 315 460 305T491 279T508 241T514 196Q514 152 502 115T469 49T423 4T370 -12ZM371 25Q389 25 407 38T439 73T462 126T471 193Q471 237 456 257T414 278Q396 278 378 266T346 231T323 178T314 111Q314 66 329 46T371 25ZM187 350Q160 350 141 360T110 386T93 424T87 469Q87 512 99 550T132 616T178 661T231 677Q258 677 277 667T308 641T325 602T331 557Q331 513 319 476T286 410T240 366T187 350ZM188 387Q206 387 223 399T255 434T279 487T288 554Q288 599 273 619T230 640Q212 640 195 627T163 592T139 539T130 472Q130 428 145 408T188 387ZM636 -12Q610 -12 591 -2T560 24T543 63T537 108Q537 151 549 189T582 255T628 299T681 315Q707 315 726 305T757 279T774 241T780 196Q780 152 768 115T735 49T689 4T636 -12ZM637 25Q655 25 673 38T705 73T728 126T737 193Q737 237 722 257T680 278Q662 278 644 266T612 231T589 178T580 111Q580 66 595 46T637 25Z"  />
<glyph unicode="&#x2039;" horiz-adv-x="196" d="M79 63L29 243L159 420H207L74 239L123 63H79Z"  />
<glyph unicode="&#x203A;" horiz-adv-x="196" d="M117 420L167 240L37 63H-11L122 244L73 420H117Z"  />
<glyph unicode="&#x20AC;" horiz-adv-x="384" d="M175 -12Q120 -12 88 31T55 168Q55 183 56 202T59 243H16L25 282H64Q72 333 85 386H48L57 425H95Q109 474 129 519T174 600T231 657T301 678Q329 678 349 668T384 638T406 594T417 539L366 529Q361 579 345 604T296 629Q272 629 251 613T212 568T180 502T153 425H287L278 386H143Q137 359 132 333T123 282H255L246 243H117Q115 220 114 200T112 164Q112 95 128 66T180 37Q208 37 231 59T277 124L321 101Q290 46 255 17T175 -12Z"  />
<glyph unicode="&#x2122;" horiz-adv-x="374" d="M356 447L396 629L301 447H293L278 629L238 447H210L258 667H301L311 510L389 667H432L384 447H356ZM175 641L132 447H104L147 641H105L110 667H222L217 641H175Z"  />


</font>
</defs>
</svg>
